<svg width="150" height="27" fill="none" xmlns="http://www.w3.org/2000/svg"><path d="M.567 0h28.025s5.329 2.23 5.555 6.667V22.21s-.88 4.213-5.126 4.663H.567V9.978h9.575v10.43h15.13s1.197-.586 1.197-2.073V9.348s-.587-2.32-3.342-2.32H.567V0zM45.98 0h23.44v6.848H40.063S41.712 1.126 45.98 0zm-5.917 9.437H69.42v7.32H49.39V26.85h-9.327V9.437zM124.881.856h-8.287v25.993h8.287V.856zm11.404 14.123h-9.868l12.669 11.848h10.049l-12.85-11.848z" fill="#fff"/><path d="M126.553 12.84h9.213l13.369-11.736h-9.665L126.553 12.84z" fill="#FF4747"/><path d="M107.199 0v6.825H76.736S77.12 1.036 84.708 0h22.491zM76.736 9.483h22.56s9.258 1.396 9.258 9.01c0 7.636-6.345 8.086-8.423 8.334H77.459v-5.744h20.865s2.326-.067 2.326-2.365c0-2.297-2.077-2.095-2.077-2.095H84.504c.023 0-8.016-2.14-7.768-7.14z" fill="#fff"/></svg>