<svg width="149" height="27" fill="none" xmlns="http://www.w3.org/2000/svg"><path d="M0 0h28.024s5.33 2.23 5.556 6.667V22.21s-.881 4.213-5.127 4.663H0V9.978h9.575v10.43h15.13s1.197-.586 1.197-2.073V9.348s-.588-2.32-3.343-2.32H0V0zm45.413 0h23.44v6.848H39.496S41.145 1.126 45.413 0zm-5.917 9.437h29.357v7.32h-20.03V26.85h-9.327V9.437zM124.314.856h-8.288v25.993h8.288V.856zm11.404 14.123h-9.868l12.668 11.848h10.049l-12.849-11.848z" fill="#000"/><path d="M125.985 12.84h9.214l13.368-11.736h-9.665L125.985 12.84z" fill="#FF4747"/><path d="M106.632 0v6.825H76.169S76.553 1.036 84.14 0h22.492zM76.169 9.483h22.56s9.258 1.396 9.258 9.01c0 7.636-6.346 8.086-8.423 8.334H76.89v-5.744h20.866s2.326-.067 2.326-2.365c0-2.297-2.078-2.095-2.078-2.095H83.938c.023 0-8.017-2.14-7.768-7.14z" fill="#000"/></svg>