<svg width="37" height="45" fill="none" xmlns="http://www.w3.org/2000/svg"><path fill-rule="evenodd" clip-rule="evenodd" d="M19.327 43.507l-1.316 1.148-1.315-1.148C5.634 33.847.012 25.414.012 18c0-10.499 8.194-18 18-18 9.805 0 18 7.501 18 18 0 7.413-5.623 15.847-16.685 25.507z" fill="#FF4747"/><path d="M3.255 14h5.567s1.059.443 1.104 1.324v3.088s-.175.837-1.018.926H3.255v-3.356h1.902v2.072h3.006s.238-.116.238-.412v-1.785s-.117-.461-.664-.461H3.255V14zm9.021 0h4.657v1.36H11.1s.327-1.136 1.175-1.36zm-1.175 1.875h5.832v1.454h-3.98v2.004h-1.852v-3.458zM27.95 14.17h-1.646v5.164h1.646V14.17zm2.265 2.806h-1.96l2.517 2.353h1.996l-2.553-2.354zm-1.933-.426h1.83l2.656-2.33h-1.92l-2.566 2.33zM24.438 14v1.356h-6.052s.076-1.15 1.584-1.356h4.468zm-6.052 1.884h4.481s1.84.277 1.84 1.79c0 1.516-1.26 1.606-1.674 1.655H18.53v-1.14h4.144s.463-.014.463-.47c0-.457-.413-.417-.413-.417h-2.795c.005 0-1.592-.425-1.543-1.418z" fill="#fff"/></svg>